<svg width="20" height="20" viewBox="0 0 512.000000 512.000000" preserveAspectRatio="xMidYMid meet">
<g transform="translate(0.000000,512.000000) scale(0.100000,-0.100000)" fill="currentColor" stroke="none">
<path d="M2377 4900 c-234 -37 -455 -136 -638 -286 -225 -184 -383 -451 -440 -746 -24 -123 -26 -338 -4 -462 86 -494 460 -900 943 -1022 215 -54 429 -54 644 0 483 122 857 528 943 1022 21 124 20 339 -4 461 -51 263 -173 489 -367 680 -169 166 -388 284 -631 338 -81 19 -363 28 -446 15z"/>
<path d="M2430 2133 c-262 -25 -485 -92 -692 -206 -361 -200 -634 -516 -783 -906 -59 -155 -104 -387 -105 -533 l0 -68 1710 0 1710 0 0 63 c-1 215 -70 488 -180 708 -232 462 -675 806 -1172 909 -161 33 -355 46 -488 33z"/>
</g>
</svg>