<svg viewBox="284.235 192.4 30.692 31.763" width="30" height="30" style="">
  <path d="M 148 388 C 153 265 159.893 222.156 227.893 190.156 C 262.893 173.156 290.579 175.525 325.579 181.525 C 374.579 188.525 387.615 204.419 350 220 C 320.653 232.156 296.104 288.212 291.104 342.212 C 284.104 420.212 241.501 479.796 176.501 492.796 C 176.501 492.796 155.14 497.526 144 492 C 139.028 489.534 148 388 148 388 Z" transform="matrix(0.1, 0, 0, -0.1, 269.984684, 241.86858)" fill="#784af4"/>
  <path d="M 350 380 C 336.104 363.788 332.518 341.19 331.737 325.209 C 329.421 277.785 371.951 224.576 393.842 224.576 C 407.899 224.576 449.421 264.361 449.421 328.367 C 449.421 360.367 419 400 390 400 C 379 400 363.896 396.212 350 380 Z" transform="matrix(0.1, 0, 0, -0.1, 269.984684, 241.86858)" fill="#784af4"/>
</svg>