<svg width="20" height="20" viewBox="0 0 512.000000 512.000000">
<g transform="translate(0.000000,512.000000) scale(0.100000,-0.100000)" fill="currentColor" stroke="none">
<path d="M2430 4689 c-336 -52 -610 -299 -701 -634 -31 -112 -31 -316 -1 -426 84 -309 311 -538 618 -620 112 -31 315 -31 429 0 302 80 534 312 616 616 31 115 31 317 0 430 -83 305 -318 540 -616 615 -95 24 -254 33 -345 19z"/>
<path d="M1053 3405 c-189 -41 -341 -185 -397 -374 -21 -72 -21 -230 0 -302 42 -142 145 -268 269 -328 222 -107 475 -65 637 107 100 107 148 226 148 372 0 146 -48 265 -148 372 -130 138 -319 194 -509 153z"/>
<path d="M3835 3408 c-27 -5 -86 -27 -131 -48 -181 -87 -294 -272 -294 -480 0 -144 48 -265 146 -369 285 -303 791 -181 908 218 21 72 21 230 0 302 -80 271 -346 431 -629 377z"/>
<path d="M2415 2769 c-280 -35 -541 -187 -716 -417 -68 -90 -143 -245 -176 -367 l-28 -100 -3 -733 -3 -732 1071 0 1071 0 -3 733 -3 732 -28 100 c-144 527 -634 852 -1182 784z"/>
<path d="M1005 2125 c-292 -63 -518 -301 -570 -600 -12 -71 -15 -185 -15 -596 l0 -509 324 0 325 0 4 753 c4 794 4 792 51 925 l15 42 -37 -1 c-20 0 -64 -6 -97 -14z"/>
<path d="M4005 2053 c40 -155 45 -258 45 -963 l0 -670 326 0 325 0 -3 548 c-4 617 -2 593 -85 762 -39 80 -60 109 -137 185 -69 69 -110 101 -171 132 -91 47 -184 77 -266 87 l-57 7 23 -88z"/>
</g>
</svg>