<svg width="30" height="30" viewBox="0 0 512.000000 512.000000">
<g transform="translate(0.000000,512.000000) scale(0.100000,-0.100000)" fill="currentColor" stroke="none">
<path d="M4750 4419 c-35 -16 -380 -355 -1590 -1564 l-1545 -1545 -600 600 c-658 657 -642 643 -760 643 -106 0 -205 -65 -241 -160 -23 -59 -15 -178 14 -224 12 -19 344 -356 739 -751 787 -785 732 -738 858 -738 38 0 76 8 105 21 66 29 3340 3303 3369 3369 23 51 27 141 10 204 -14 52 -103 141 -155 155 -63 17 -153 13 -204 -10z"/>
</g>
</svg>